# xmcd
#
# Track frame offsets:
#	150
#	19922
#	35675
#
# Disc length: 720 seconds
#
# Revision: 0
# Processed by: cddbd v1.4PL0 Copyright (c) Steve Scherf et al.
# Submitted via: dBpowerAMP V4.0
#
DISCID=1f02ce03
DTITLE=Wyclef Jean Feat. Mary J. Blige - 911
DYEAR=2000
DGENRE=R&B
TTITLE0=LP Version
TTITLE1=Gone Till November
TTITLE2=It Doesn't Matter
EXTD=
EXTT0=
EXTT1=
EXTT2=
PLAYORDER=
